# xmcd
#
# Track frame offsets: 
#        150
#        16501
#        31227
#        42789
#        55748
#        78330
#        89826
#        106814
#        117988
#        129130
#        147124
#
# Disc length: 2285 seconds
#
# Revision: 0
# Processed by: cddbd v1.5.2PL0 Copyright (c) Steve Scherf et al.
# Submitted via: ExactAudioCopyFreeDBPlugin 1.0
#
DISCID=7d08eb0b
DTITLE=Oscar Harris - Mixed Up
DYEAR=2016
DGENRE=Country
TTITLE0=Calling of the Wind
TTITLE1=I Want You
TTITLE2=Ride the Train
TTITLE3=Mexico
TTITLE4=Everybody Gets Burned
TTITLE5=Cross on the Hillside
TTITLE6=Gray Skies and Good Coffee
TTITLE7=The Last Battle
TTITLE8=Johnstown
TTITLE9=I Want You (Unplgged)
TTITLE10=Lay Your Burdens Down
EXTD=
EXTT0=
EXTT1=
EXTT2=
EXTT3=
EXTT4=
EXTT5=
EXTT6=
EXTT7=
EXTT8=
EXTT9=
EXTT10=
PLAYORDER=
